HIERARCHY
ROOT Hips
{
	OFFSET 0.00000 0.00000 0.00000
	CHANNELS 6 Xposition Yposition Zposition Zrotation Yrotation Xrotation 
	JOINT LHipJoint
	{
		OFFSET 0 0 0
		CHANNELS 3 Zrotation Yrotation Xrotation
		JOINT LeftHip
		{
			OFFSET 1.75344 -1.53157 0.77399
			CHANNELS 3 Zrotation Yrotation Xrotation
			JOINT LeftKnee
			{
				OFFSET 2.25415 -6.19323 0.00000
				CHANNELS 3 Zrotation Yrotation Xrotation
				JOINT LeftAnkle
				{
					OFFSET 2.30342 -6.32861 0.00000
					CHANNELS 3 Zrotation Yrotation Xrotation
					JOINT LeftToe
					{
						OFFSET 0.10958 -0.30108 1.49206
						CHANNELS 3 Zrotation Yrotation Xrotation
						End Site
						{
							OFFSET 0.00000 -0.00000 0.77783
						}
					}
				}
			}
		}
	}
	JOINT RHipJoint
	{
		OFFSET 0 0 0
		CHANNELS 3 Zrotation Yrotation Xrotation
		JOINT RightHip
		{
			OFFSET -1.81912 -1.53156 0.77399
			CHANNELS 3 Zrotation Yrotation Xrotation
			JOINT RightKnee
			{
				OFFSET -2.22882 -6.12365 0.00000
				CHANNELS 3 Zrotation Yrotation Xrotation
				JOINT RightAnkle
				{
					OFFSET -2.21943 -6.09785 0.00000
					CHANNELS 3 Zrotation Yrotation Xrotation
					JOINT RightToe
					{
						OFFSET -0.18931 -0.52012 1.59379
						CHANNELS 3 Zrotation Yrotation Xrotation
						End Site
						{
							OFFSET -0.00000 -0.00000 0.84686
						}
					}
				}
			}
		}
	}
	JOINT lowerback
	{
		OFFSET 0 0 0
		CHANNELS 3 Zrotation Yrotation Xrotation
		JOINT Chest
		{
			OFFSET -0.00200 1.66634 -0.14248
			CHANNELS 3 Zrotation Yrotation Xrotation
			JOINT Chest2
			{
				OFFSET -0.00875 1.64542 0.09514
				CHANNELS 3 Zrotation Yrotation Xrotation
				JOINT lowerneck
				{
					OFFSET 0 0 0
					CHANNELS 3 Zrotation Yrotation Xrotation
					JOINT Neck
					{
						OFFSET 0.02257 1.59605 0.00839
						CHANNELS 3 Zrotation Yrotation Xrotation
						JOINT Head
						{
							OFFSET -0.10214 1.57530 -0.23335
							CHANNELS 3 Zrotation Yrotation Xrotation
							End Site
							{
								OFFSET -0.03588 1.60717 -0.08062
							}
						}
					}
				}
				JOINT LeftCollar
				{
					OFFSET 0 0 0
					CHANNELS 3 Zrotation Yrotation Xrotation
					JOINT LeftShoulder
					{
						OFFSET 2.54983 1.10186 0.40078
CHANNELS 3 Zrotation Xrotation Yrotation
						JOINT LeftElbow
						{
OFFSET 0 -4.288400 0.000000
CHANNELS 3 Zrotation Xrotation Yrotation
							JOINT LeftWrist
							{
OFFSET 0 -3.065520 -0.000000
CHANNELS 3 Zrotation Xrotation Yrotation
								JOINT lhand
								{
									OFFSET 0 0 0
CHANNELS 3 Zrotation Xrotation Yrotation
									JOINT LFingers
									{
OFFSET 0 -0.753040 0.000000
CHANNELS 3 Zrotation Xrotation Yrotation
										End Site
										{
OFFSET 0 -0.607120 0.000000
										}
									}
								}
								JOINT LThumb
								{
OFFSET 0 0.000000 0.000000
CHANNELS 3 Zrotation Xrotation Yrotation
									End Site
									{
OFFSET 0 -0.616390 0.616390
									}
								}
							}
						}
					}
				}
				JOINT RightCollar
				{
					OFFSET 0 0 0
					CHANNELS 3 Zrotation Yrotation Xrotation
					JOINT RightShoulder
					{
						OFFSET -2.60909 1.35448 0.21802
CHANNELS 3 Zrotation Xrotation Yrotation
						JOINT RightElbow
						{
OFFSET 0 -4.521720 -0.000000
CHANNELS 3 Zrotation Xrotation Yrotation
							JOINT RightWrist
							{
OFFSET 0 -2.891400 0.000000
CHANNELS 3 Zrotation Xrotation Yrotation
								JOINT rhand
								{
									OFFSET 0 0 0
CHANNELS 3 Zrotation Xrotation Yrotation
									JOINT RFingers
									{
OFFSET 0 -0.680540 0.000000
CHANNELS 3 Zrotation Xrotation Yrotation
										End Site
										{
OFFSET 0 -0.548670 0.000000
										}
									}
								}
								JOINT RThumb
								{
OFFSET 0 0.000000 0.000000
CHANNELS 3 Zrotation Xrotation Yrotation
									End Site
									{
OFFSET 0 -0.557050 0.557050
									}
								}
							}
						}
					}
				}
			}
		}
	}
}
MOTION
Frames: 10
Frame Time: 0.008333333333333333
8.934401 12.873664 23.093410 -178.246840 -0.197875 209.380686 0.000000 0.000000 0.000000 -7.850786 -18.385883 -73.078001 17.189340 19.809396 81.756976 4.165187 -5.685536 -37.574503 2.115447 -9.102004 -26.115298 0.000000 0.000000 0.000000 17.287831 16.337628 -69.602782 -16.668197 -19.731459 80.216395 -3.722601 -7.500785 -39.549775 -0.010234 0.642345 -1.765184 1.154056 0.776734 27.550333 0.429574 1.522297 -2.139054 -0.780433 0.585534 -17.259631 -5.904488 -2.521136 -6.379463 6.954204 -5.472998 -24.540414 3.565625 -4.079142 -6.073027 0.000000 0.000000 0.000000 8.162941 18.402770 17.803415 15.792972 -25.238920 3.557390 5.295977 15.644732 34.125625 0.000000 0.000000 0.000000 -7.125000 0.000000 0.000000 -14.966063 -3.244159 -16.346891 0.000000 0.000000 0.000000 -21.579905 21.898019 -8.948643 -12.815448 -21.014352 -2.388005 -11.968288 55.871279 66.295807 0.000000 0.000000 0.000000 7.125000 0.000000 0.000000 103.730153 -74.864610 119.394654
8.945871 12.850493 23.087565 -178.301688 -0.637789 209.089745 0.000000 0.000000 0.000000 -7.821270 -18.574756 -72.954820 17.287575 19.822653 82.046741 4.141450 -5.587918 -37.475563 2.191843 -9.253867 -26.593264 0.000000 0.000000 0.000000 17.529950 16.211852 -69.459313 -16.817658 -19.755323 80.659007 -3.683435 -8.248756 -39.726023 -0.013765 0.752770 -2.068810 1.276371 0.940677 27.546541 0.377379 1.591729 -2.057567 -0.909476 0.528966 -17.150929 -5.961681 -2.672562 -6.330546 7.090430 -5.665735 -24.691897 3.630321 -4.180310 -6.110736 0.000000 0.000000 0.000000 6.771960 15.758283 15.609848 15.634064 -25.021990 3.489708 4.733814 16.359820 34.912392 0.000000 0.000000 0.000000 -7.125000 0.000000 0.000000 -15.308400 -3.938680 -16.921414 0.000000 0.000000 0.000000 -19.835593 18.360839 -7.545782 -12.355674 -20.335703 -2.224457 -12.734892 57.453309 66.816145 0.000000 0.000000 0.000000 7.125000 0.000000 0.000000 106.114241 -74.839209 121.708903
8.958319 12.831355 23.083675 -178.360813 -1.073916 208.841574 0.000000 0.000000 0.000000 -7.783383 -18.778660 -72.871967 17.357825 19.831755 82.253835 4.094617 -5.405797 -37.278738 2.311805 -9.487178 -27.331707 0.000000 0.000000 0.000000 17.715183 16.124020 -69.354521 -16.934431 -19.773138 81.004345 -3.640725 -8.779327 -39.791372 -0.008008 0.576017 -1.582816 1.147618 1.015595 27.893902 0.411765 1.671548 -2.244745 -0.842260 0.574010 -17.556948 -6.095802 -2.798203 -6.553044 7.266249 -5.762358 -24.450495 3.690069 -4.207850 -5.978093 0.000000 0.000000 0.000000 5.355133 13.567539 13.273546 15.578906 -24.946449 3.466447 5.379757 15.808633 35.261853 0.000000 0.000000 0.000000 -7.125000 0.000000 0.000000 -14.981733 -4.347733 -16.634890 0.000000 0.000000 0.000000 -18.370454 15.113464 -4.792570 -12.143057 -20.018839 -2.151095 -11.735287 56.080515 66.989242 0.000000 0.000000 0.000000 7.125000 0.000000 0.000000 105.717402 -74.583881 121.622704
8.972139 12.832385 23.080364 -178.346205 -1.511632 208.545694 0.000000 0.000000 0.000000 -7.685570 -18.956035 -72.586782 17.375523 19.834063 82.306162 4.051542 -5.435116 -37.066227 2.339456 -9.539988 -27.499659 0.000000 0.000000 0.000000 17.981739 16.025489 -69.024410 -16.978988 -19.779749 81.136074 -3.629748 -9.057833 -39.882889 -0.002178 0.195342 -0.536814 1.118404 1.079236 27.610774 0.435019 1.725777 -1.984321 -0.811404 0.602645 -17.099135 -6.183587 -2.861315 -6.929874 7.530332 -5.833752 -24.538361 3.783791 -4.272690 -5.927352 0.000000 0.000000 0.000000 4.169625 10.610333 10.945702 15.438666 -24.753515 3.407549 6.368052 14.886323 35.769840 0.000000 0.000000 0.000000 -7.125000 0.000000 0.000000 -14.487432 -4.956371 -16.190491 0.000000 0.000000 0.000000 -16.931340 11.107075 -1.473928 -12.066339 -19.904089 -2.124864 -9.090788 52.905603 66.584475 0.000000 0.000000 0.000000 7.125000 0.000000 0.000000 102.176362 -74.166992 118.693236
8.986416 12.842666 23.071938 -178.339501 -1.884912 208.201604 0.000000 0.000000 0.000000 -7.660068 -19.079351 -72.114291 17.358614 19.831895 82.256293 4.022627 -5.598946 -36.901402 2.312994 -9.489392 -27.338908 0.000000 0.000000 0.000000 18.224392 15.930501 -68.518363 -16.984636 -19.780598 81.152659 -3.616533 -9.305359 -39.949906 -0.000651 -0.084531 0.232235 1.105191 1.167810 27.266172 0.424569 1.822029 -1.815443 -0.843871 0.648711 -16.720179 -6.228425 -2.969546 -6.951155 7.735281 -5.946647 -24.619268 3.861022 -4.338269 -5.931533 0.000000 0.000000 0.000000 3.212148 8.021976 8.149622 15.369822 -24.658712 3.378688 7.275059 13.662825 36.638439 0.000000 0.000000 0.000000 -7.125000 0.000000 0.000000 -14.071107 -5.909568 -15.906548 0.000000 0.000000 0.000000 -15.542739 7.279383 2.353934 -12.209829 -20.118116 -2.174296 -8.006087 50.261460 66.573097 0.000000 0.000000 0.000000 7.125000 0.000000 0.000000 101.225911 -73.953098 118.029311
9.000886 12.858747 23.057897 -178.396875 -2.178114 207.823649 0.000000 0.000000 0.000000 -7.769165 -19.145297 -71.499377 17.314066 19.826117 82.124898 4.004511 -5.868325 -36.773745 2.233633 -9.335216 -26.850823 0.000000 0.000000 0.000000 18.366612 15.837449 -67.905173 -16.964774 -19.777671 81.093880 -3.601493 -9.501820 -39.982691 -0.002733 -0.308558 0.847868 1.036998 1.280861 26.910520 0.373079 1.933302 -1.711442 -0.897603 0.705364 -16.415515 -6.210720 -3.082935 -6.835153 7.836597 -6.066645 -24.659995 3.896105 -4.394237 -5.950329 0.000000 0.000000 0.000000 2.469284 5.723093 4.911062 15.397573 -24.696873 3.390340 7.654632 12.581838 37.719185 0.000000 0.000000 0.000000 -7.125000 0.000000 0.000000 -13.954996 -7.001457 -16.008137 0.000000 0.000000 0.000000 -14.227914 3.517230 6.799898 -12.582181 -20.670032 -2.305035 -7.856599 47.290095 66.650787 0.000000 0.000000 0.000000 7.125000 0.000000 0.000000 101.356599 -73.899605 118.218459
9.015486 12.877653 23.039608 -178.548825 -2.394668 207.427122 0.000000 0.000000 0.000000 -8.034339 -19.151956 -70.806197 17.249375 19.817634 81.934203 3.990056 -6.224783 -36.653157 2.103620 -9.078020 -26.040077 0.000000 0.000000 0.000000 18.360694 15.756598 -67.255636 -16.930891 -19.772627 80.993827 -3.586274 -9.624985 -39.976814 -0.007330 -0.549222 1.509249 0.868386 1.410348 26.571349 0.283835 2.028725 -1.607448 -0.930364 0.762148 -16.121911 -6.126047 -3.155511 -6.855911 7.815089 -6.152536 -24.635763 3.872845 -4.431135 -5.936237 0.000000 0.000000 0.000000 1.918029 3.532336 1.340339 15.536831 -24.888384 3.448812 7.130390 12.064675 38.789802 0.000000 0.000000 0.000000 -7.125000 0.000000 0.000000 -14.315843 -7.963849 -16.655382 0.000000 0.000000 0.000000 -12.997223 -0.395389 11.789807 -13.121612 -21.465076 -2.497611 -7.926651 43.438655 66.488585 0.000000 0.000000 0.000000 7.125000 0.000000 0.000000 100.906694 -73.955225 117.713504
9.031746 12.897569 23.030116 -178.614952 -2.646417 207.003910 0.000000 0.000000 0.000000 -8.188375 -19.055411 -70.194873 17.172279 19.807131 81.706727 3.951080 -6.776904 -36.392150 1.940792 -8.739762 -24.985781 0.000000 0.000000 0.000000 18.378432 15.841552 -66.583164 -16.878690 -19.764769 80.839324 -3.551655 -9.830367 -39.924924 -0.015965 -0.807195 2.218518 0.780476 1.516540 26.524049 0.234979 2.134606 -1.609470 -0.975097 0.814894 -16.100128 -6.117101 -3.220082 -7.113728 7.761487 -6.190034 -24.296727 3.826868 -4.417910 -5.784612 0.000000 0.000000 0.000000 1.567557 1.508464 -2.287070 15.875789 -25.351428 3.592891 5.769266 12.034179 39.292833 0.000000 0.000000 0.000000 -7.125000 0.000000 0.000000 -15.049696 -8.271534 -17.636471 0.000000 0.000000 0.000000 -11.768119 -4.733157 15.497347 -13.219091 -21.607288 -2.533397 -10.723351 44.259017 66.758382 0.000000 0.000000 0.000000 7.125000 0.000000 0.000000 104.111047 -74.458567 120.228581
9.054193 12.914360 23.029264 -178.562830 -2.992949 206.627262 0.000000 0.000000 0.000000 -8.139674 -18.918857 -69.747873 17.088811 19.795465 81.460257 3.886494 -7.340543 -36.011118 1.853693 -8.553756 -24.409505 0.000000 0.000000 0.000000 18.497753 16.065218 -65.983235 -16.818462 -19.755503 80.661293 -3.463119 -10.257543 -39.743818 -0.013634 -0.748530 2.057219 0.752181 1.596386 26.593466 0.247392 2.242570 -1.709217 -0.992259 0.865373 -16.253941 -6.106561 -3.271113 -7.322407 7.677374 -6.203453 -23.913761 3.770352 -4.385568 -5.630414 0.000000 0.000000 0.000000 1.359166 -0.189580 -5.957184 16.458965 -26.135888 3.847682 4.125754 12.367558 39.515253 0.000000 0.000000 0.000000 -7.125000 0.000000 0.000000 -15.895486 -8.288927 -18.706768 0.000000 0.000000 0.000000 -10.511015 -8.908195 19.390224 -13.603430 -22.163492 -2.677629 -11.030211 43.090350 67.034613 0.000000 0.000000 0.000000 7.125000 0.000000 0.000000 105.219395 -74.431873 121.322713
9.080381 12.933473 23.030547 -178.530376 -3.422943 206.269035 0.000000 0.000000 0.000000 -8.079879 -18.820655 -69.318322 16.986044 19.780632 81.156629 3.808710 -7.784625 -35.580871 1.858549 -8.564184 -24.441778 0.000000 0.000000 0.000000 18.669752 16.139220 -65.441744 -16.749351 -19.744684 80.456836 -3.324685 -10.777558 -39.382103 -0.006781 -0.373733 1.027132 0.751804 1.647367 26.582368 0.280473 2.323672 -1.793642 -0.989404 0.903834 -16.349256 -6.102780 -3.315131 -7.506425 7.533659 -6.219909 -23.553166 3.698688 -4.351899 -5.490561 0.000000 0.000000 0.000000 1.461817 -1.879541 -10.015327 17.242209 -27.169718 4.200742 3.721857 11.179963 40.602586 0.000000 0.000000 0.000000 -7.125000 0.000000 0.000000 -16.185379 -9.280582 -19.298517 0.000000 0.000000 0.000000 -9.200495 -13.165164 23.003232 -14.086598 -22.856610 -2.862796 -15.620833 46.446212 67.787455 0.000000 0.000000 0.000000 7.125000 0.000000 0.000000 112.181162 -74.668906 127.373699
